HIERARCHY
ROOT Hips
{
 OFFSET 0.000000 0.000000 0.000000
 CHANNELS 6 Xposition Yposition Zposition Yrotation Xrotation Zrotation
 JOINT Chest
 {
  OFFSET 0.000000 9.588913 -0.003946
  CHANNELS 3 Yrotation Xrotation Zrotation
  JOINT Chest2
  {
   OFFSET 0.000000 9.541882 0.008053
   CHANNELS 3 Yrotation Xrotation Zrotation
   JOINT Chest3
   {
    OFFSET 0.000000 9.501360 0.000000
    CHANNELS 3 Yrotation Xrotation Zrotation
    JOINT Chest4
    {
     OFFSET 0.000000 9.491660 0.000000
     CHANNELS 3 Yrotation Xrotation Zrotation
     JOINT Neck
     {
      OFFSET 0.000000 14.331917 0.000000
      CHANNELS 3 Yrotation Xrotation Zrotation
      JOINT Head
      {
       OFFSET 0.000000 8.884799 0.017034
       CHANNELS 3 Yrotation Xrotation Zrotation
       End Site
       {
        OFFSET 0.000000 16.896195 0.008993
       }
      }
     }
     JOINT RightCollar
     {
      OFFSET -2.923010 9.499495 0.000000
      CHANNELS 3 Yrotation Xrotation Zrotation
      JOINT RightShoulder
      {
       OFFSET -13.795216 0.000000 0.000000
       CHANNELS 3 Yrotation Xrotation Zrotation
       JOINT RightElbow
       {
        OFFSET -30.272209 0.000000 0.000000
        CHANNELS 3 Yrotation Xrotation Zrotation
        JOINT RightWrist
        {
         OFFSET -24.478199 0.000000 0.000000
         CHANNELS 3 Yrotation Xrotation Zrotation
         End Site
         {
          OFFSET -18.090752 0.000000 0.000000
         }
        }
       }
      }
     }
     JOINT LeftCollar
     {
      OFFSET 2.923010 9.499495 0.000000
      CHANNELS 3 Yrotation Xrotation Zrotation
      JOINT LeftShoulder
      {
       OFFSET 13.795216 0.000000 0.000000
       CHANNELS 3 Yrotation Xrotation Zrotation
       JOINT LeftElbow
       {
        OFFSET 30.272209 0.000000 0.000000
        CHANNELS 3 Yrotation Xrotation Zrotation
        JOINT LeftWrist
        {
         OFFSET 24.478199 0.000000 0.000000
         CHANNELS 3 Yrotation Xrotation Zrotation
         End Site
         {
          OFFSET 18.090752 0.000000 0.000000
         }
        }
       }
      }
     }
    }
   }
  }
 }
 JOINT RightHip
 {
  OFFSET -7.826875 0.019532 0.001973
  CHANNELS 3 Yrotation Xrotation Zrotation
  JOINT RightKnee
  {
   OFFSET 0.000000 -40.546152 -0.001885
   CHANNELS 3 Yrotation Xrotation Zrotation
   JOINT RightAnkle
   {
    OFFSET 0.000000 -39.417092 -0.003189
    CHANNELS 3 Yrotation Xrotation Zrotation
    JOINT RightToe
    {
     OFFSET 0.000000 -7.579396 17.243563
     CHANNELS 3 Yrotation Xrotation Zrotation
     End Site
     {
      OFFSET 0.000000 -1.500329 6.694466
     }
    }
   }
  }
 }
 JOINT LeftHip
 {
  OFFSET 7.826875 0.019532 0.001973
  CHANNELS 3 Yrotation Xrotation Zrotation
  JOINT LeftKnee
  {
   OFFSET 0.000000 -40.546152 -0.001885
   CHANNELS 3 Yrotation Xrotation Zrotation
   JOINT LeftAnkle
   {
    OFFSET 0.000000 -39.417092 -0.003189
    CHANNELS 3 Yrotation Xrotation Zrotation
    JOINT LeftToe
    {
     OFFSET 0.000000 -7.579396 17.243563
     CHANNELS 3 Yrotation Xrotation Zrotation
     End Site
     {
      OFFSET 0.000000 -1.500329 6.694466
     }
    }
   }
  }
 }
}
MOTION
Frames: 7
Frame Time: 0.008333
0.000000 87.345680 0.000000 0.000000 -5.767889 0.000000 0.000000 11.653876 0.000000 0.000000 -5.885988 0.000000 0.000000 -0.000000 0.000000 0.000000 -0.000000 0.000000 0.000000 12.528808 0.000000 0.000000 0.711711 0.000000 0.000000 -0.000000 0.000000 0.000000 -0.000000 0.000000 2.309063 -0.000000 0.000000 -2.309063 -0.000000 -0.000000 0.000000 -0.000000 0.000000 0.000000 0.000000 0.000000 -2.309063 0.000000 0.000000 2.309063 -0.000000 0.000000 0.000000 8.520374 0.000000 0.000000 1.905768 0.000000 -0.000000 -4.658254 0.000000 0.000000 -0.000000 0.000000 0.000000 8.520374 0.000000 0.000000 1.905768 0.000000 -0.000000 -4.658254 0.000000 0.000000 -0.000000 0.000000
-4.362538 87.807747 31.807773 13.556706 17.913689 -4.639626 4.551803 14.415630 0.168396 2.598061 8.247653 -0.023663 3.255556 10.309067 0.029705 2.598061 8.247653 -0.023663 -14.084509 11.408770 8.948270 -30.311680 -10.702752 22.543232 7.349771 -10.551727 -4.634992 8.360821 -29.465853 61.584730 110.016762 15.971193 1.735781 12.511219 -1.241120 -25.403283 -2.492252 -11.097614 11.703165 40.171342 -34.197566 -52.880137 -129.854021 7.022133 8.457431 -4.570464 -8.616685 29.751603 -20.642701 -3.514375 7.318663 -3.914217 5.184382 -2.321529 -1.243712 -9.528317 9.964277 0.200891 -6.969370 -3.319298 -26.746850 -32.224753 13.450191 -8.151258 30.020266 -3.028294 0.620538 -9.487652 -0.945521 0.027150 0.108669 0.046641
-4.344612 87.808237 31.805910 13.548844 17.896275 -4.632105 4.549958 14.414760 0.171138 2.596270 8.245596 -0.019023 3.253413 10.306465 0.035464 2.596270 8.245596 -0.019023 -14.056496 11.427592 8.897725 -30.236081 -10.695323 22.434161 7.343865 -10.546744 -4.632695 8.402017 -29.470802 61.593290 109.940878 15.999801 1.706794 12.541772 -1.239518 -25.407606 -2.497912 -11.087859 11.697429 40.180508 -34.164904 -52.905316 -129.871559 7.056205 8.456768 -4.537724 -8.609671 29.740458 -20.618271 -3.507916 7.284163 -3.919561 5.184839 -2.317512 -1.236567 -9.531043 9.979365 0.197482 -6.963664 -3.324129 -26.716084 -32.208689 13.417828 -8.140461 30.003290 -3.029528 0.611384 -9.487922 -0.933577 0.023315 0.106108 0.043214
-4.324358 87.809347 31.803160 13.543030 17.881145 -4.623532 4.547131 14.414142 0.173825 2.593930 8.243538 -0.014846 3.250571 10.303863 0.040629 2.593930 8.243538 -0.014846 -14.028662 11.446271 8.846953 -30.160780 -10.688071 22.324781 7.341599 -10.541395 -4.632204 8.444295 -29.476434 61.608702 109.864775 16.026663 1.676018 12.572437 -1.232803 -25.407684 -2.506823 -11.077252 11.691006 40.182514 -34.140202 -52.929066 -129.882030 7.106884 8.462686 -4.496415 -8.602540 29.723628 -20.589123 -3.509651 7.248338 -3.928966 5.193968 -2.314098 -1.233100 -9.535350 9.995474 0.193866 -6.959654 -3.328067 -26.678452 -32.198766 13.380544 -8.129775 29.988024 -3.027501 0.595795 -9.482887 -0.923269 0.020578 0.100601 0.042407
-4.302646 87.811146 31.799808 13.535729 17.868499 -4.615311 4.542973 14.413382 0.176997 2.591062 8.241564 -0.011347 3.247053 10.301373 0.044934 2.591062 8.241564 -0.011347 -14.001144 11.463786 8.797877 -30.087027 -10.682136 22.219035 7.345301 -10.533313 -4.636948 8.481764 -29.484271 61.635627 109.796747 16.056630 1.649089 12.602017 -1.224356 -25.403878 -2.516111 -11.063631 11.683667 40.180968 -34.120795 -52.953020 -129.886648 7.168392 8.477066 -4.454237 -8.597577 29.706698 -20.552746 -3.518752 7.211676 -3.934729 5.210143 -2.308237 -1.239501 -9.540162 10.007242 0.190912 -6.957554 -3.328294 -26.637931 -32.194044 13.342660 -8.121594 29.975368 -3.024531 0.579355 -9.472874 -0.917479 0.019445 0.092272 0.044852
-4.280241 87.813489 31.796766 13.527921 17.855066 -4.607987 4.539305 14.413317 0.181281 2.587920 8.240424 -0.008463 3.243179 10.299929 0.048468 2.587920 8.240424 -0.008463 -13.976580 11.480786 8.753458 -30.020543 -10.674521 22.123053 7.348016 -10.524843 -4.643661 8.508365 -29.493942 61.678060 109.740807 16.091460 1.633786 12.635953 -1.218604 -25.401862 -2.524864 -11.047069 11.676452 40.174172 -34.104097 -52.972158 -129.887872 7.231465 8.499298 -4.417312 -8.592480 29.698450 -20.513491 -3.529822 7.176071 -3.934165 5.231208 -2.302170 -1.256630 -9.544364 10.014194 0.189165 -6.957724 -3.323664 -26.598312 -32.189915 13.306210 -8.113389 29.966061 -3.022867 0.563132 -9.460411 -0.913624 0.019877 0.082595 0.048673
-4.257994 87.816470 31.794186 13.521466 17.842234 -4.602598 4.536845 14.413384 0.186926 2.585466 8.239825 -0.005551 3.240169 10.299161 0.052057 2.585466 8.239825 -0.005551 -13.957819 11.497523 8.714408 -29.966788 -10.663658 22.039017 7.342715 -10.519067 -4.650655 8.525664 -29.502919 61.733557 109.693863 16.127885 1.628661 12.679679 -1.213798 -25.409318 -2.538770 -11.028740 11.669310 40.162368 -34.088529 -52.980295 -129.887634 7.290557 8.525942 -4.390120 -8.587520 29.706612 -20.480041 -3.540978 7.146028 -3.932234 5.254062 -2.299036 -1.277010 -9.546366 10.018873 0.188112 -6.960448 -3.315411 -26.562960 -32.183675 13.273406 -8.101005 29.954879 -3.020084 0.546679 -9.446374 -0.908339 0.021472 0.074411 0.050589
